<svg xmlns="http://www.w3.org/2000/svg" viewBox="0 0 402.64 302.89"><defs><style>.cls-1,.cls-2{stroke:#000;stroke-miterlimit:10;}.cls-2{fill:#f7aa58;stroke-width:4px;}</style></defs><g id="图层_2" data-name="图层 2"><g id="图层_1-2" data-name="图层 1"><path class="cls-1" d="M100.91.78V61L59.34,103.62h0l-52-53.28A207.18,207.18,0,0,1,27.37.78Z"/><path class="cls-1" d="M402.14,103.62a210.74,210.74,0,0,1-6.81,53.26,206.19,206.19,0,0,1-20.07,49.58H301.73v75.32a196.73,196.73,0,0,1-48.38,20.55h0l-52-53.28h0v0l-52,53.26a196,196,0,0,1-48.4-20.55V206.47H27.37A206.94,206.94,0,0,1,7.31,156.91a211.87,211.87,0,0,1,0-106.57l52,53.28h0l41.57,42.59,28.87,29.56.55.57L177.76,137h45l49.55,39.32v0h0l123-126A210.74,210.74,0,0,1,402.14,103.62Z"/><path class="cls-1" d="M395.33,50.36l-52,53.26L301.73,61V.79h73.53A206.19,206.19,0,0,1,395.33,50.36Z"/><polygon class="cls-2" points="307.54 42.12 307.54 98.89 220.45 98.89 219.97 98.45 202.42 82.27 184.39 98.89 97.31 98.89 97.31 42.14 140.86 2 264.02 2 307.54 42.12"/></g></g></svg>